<mxfile host="app.diagrams.net" modified="2024-04-10T03:43:23.897Z" agent="Mozilla/5.0 (Macintosh; Intel Mac OS X 10_15_7) AppleWebKit/537.36 (KHTML, like Gecko) Chrome/123.0.0.0 Safari/537.36" version="24.2.3" etag="rSGbGBYLBfjpQ75Xc63u" type="github">
  <diagram name="第 1 页" id="_3h50c-QlJG8t7IM8elC">
    <mxGraphModel>
      <root>
        <mxCell id="0" />
        <mxCell id="1" parent="0" />
      </root>
    </mxGraphModel>
  </diagram>
</mxfile>
